HIERARCHY
ROOT Hips
{
	OFFSET 0.000000 0.000000 0.000000
	CHANNELS 6 Xposition Yposition Zposition Xrotation Yrotation Zrotation
	JOINT LeftUpLeg_virtual
	{
		OFFSET 0.000000 0.000000 0.000000
		CHANNELS 3 Xrotation Yrotation Zrotation
		JOINT LeftUpLeg
		{
			OFFSET 15.427100 -6.655098 0.678600
			CHANNELS 3 Xrotation Yrotation Zrotation
			JOINT LeftLeg
			{
				OFFSET 4.081073 -39.591068 13.024000
				CHANNELS 3 Xrotation Yrotation Zrotation
				JOINT LeftFoot
				{
					OFFSET -4.081074 -37.707932 -15.979700
					CHANNELS 3 Xrotation Yrotation Zrotation
					JOINT LeftToeBase
					{
						OFFSET 5.346399 -15.068900 20.645000
						CHANNELS 3 Xrotation Yrotation Zrotation
						JOINT LeftToe_End
						{
							OFFSET 2.754700 0.931300 11.300900
							CHANNELS 3 Xrotation Yrotation Zrotation
							End Site
							{
								OFFSET 0 0 0
							}
						}
					}
				}
			}
		}
	}
	JOINT RightUpLeg_virtual
	{
		OFFSET 0.000000 0.000000 0.000000
		CHANNELS 3 Xrotation Yrotation Zrotation
		JOINT RightUpLeg
		{
			OFFSET -15.569500 -6.655098 0.678600
			CHANNELS 3 Xrotation Yrotation Zrotation
			JOINT RightLeg
			{
				OFFSET -4.081825 -39.591045 13.023800
				CHANNELS 3 Xrotation Yrotation Zrotation
				JOINT RightFoot
				{
					OFFSET 4.081824 -37.707954 -15.979600
					CHANNELS 3 Xrotation Yrotation Zrotation
					JOINT RightToeBase
					{
						OFFSET -5.346400 -15.068900 20.645000
						CHANNELS 3 Xrotation Yrotation Zrotation
						JOINT RightToe_End
						{
							OFFSET -2.754700 0.931300 11.300900
							CHANNELS 3 Xrotation Yrotation Zrotation
							End Site
							{
								OFFSET 0 0 0
							}
						}
					}
				}
			}
		}
	}
	JOINT Spine_virtual
	{
		OFFSET 0.000000 0.000000 0.000000
		CHANNELS 3 Xrotation Yrotation Zrotation
		JOINT Spine
		{
			OFFSET -0.279200 12.230698 -2.892100
			CHANNELS 3 Xrotation Yrotation Zrotation
			JOINT Spine1
			{
				OFFSET -0.232667 10.192268 -1.242267
				CHANNELS 3 Xrotation Yrotation Zrotation
				JOINT Spine1_split
				{
					OFFSET -0.232667 10.192268 -1.242267
					CHANNELS 3 Xrotation Yrotation Zrotation
					JOINT Spine2
					{
						OFFSET -0.232667 10.192268 -1.242267
						CHANNELS 3 Xrotation Yrotation Zrotation
						JOINT Neck_virtual
						{
							OFFSET 0.000000 0.000000 0.000000
							CHANNELS 3 Xrotation Yrotation Zrotation
							JOINT Neck
							{
								OFFSET -0.418800 17.814194 8.416900
								CHANNELS 3 Xrotation Yrotation Zrotation
								JOINT Head
								{
									OFFSET 0.000000 7.031097 3.806800
									CHANNELS 3 Xrotation Yrotation Zrotation
									JOINT HeadTop_End
									{
										OFFSET 0.000000 24.646606 12.978600
										CHANNELS 3 Xrotation Yrotation Zrotation
										End Site
										{
											OFFSET 0 0 0
										}
									}
								}
							}
						}
						JOINT LeftShoulder_virtual
						{
							OFFSET 0.000000 0.000000 0.000000
							CHANNELS 3 Xrotation Yrotation Zrotation
							JOINT LeftShoulder
							{
								OFFSET 8.476499 7.247704 -3.868750
								CHANNELS 3 Xrotation Yrotation Zrotation
								JOINT LeftShoulder_split
								{
									OFFSET 8.476499 7.247704 -3.868750
									CHANNELS 3 Xrotation Yrotation Zrotation
									JOINT LeftArm
									{
										OFFSET 9.308998 -2.777710 0.208600
										CHANNELS 3 Xrotation Yrotation Zrotation
										JOINT LeftForeArm
										{
											OFFSET 29.972298 0.000000 0.000000
											CHANNELS 3 Xrotation Yrotation Zrotation
											JOINT LeftHand
											{
												OFFSET 26.026505 0.000000 0.000000
												CHANNELS 3 Xrotation Yrotation Zrotation
												End Site
												{
													OFFSET 0 0 0
												}
											}
										}
									}
								}
							}
						}
						JOINT RightShoulder_virtual
						{
							OFFSET 0.000000 0.000000 0.000000
							CHANNELS 3 Xrotation Yrotation Zrotation
							JOINT RightShoulder
							{
								OFFSET -7.570500 7.247704 -3.868750
								CHANNELS 3 Xrotation Yrotation Zrotation
								JOINT RightShoulder_split
								{
									OFFSET -7.570500 7.247704 -3.868750
									CHANNELS 3 Xrotation Yrotation Zrotation
									JOINT RightArm
									{
										OFFSET -9.308998 -2.777710 0.208500
										CHANNELS 3 Xrotation Yrotation Zrotation
										JOINT RightForeArm
										{
											OFFSET -29.972300 0.000000 0.000000
											CHANNELS 3 Xrotation Yrotation Zrotation
											JOINT RightHand
											{
												OFFSET -26.026505 0.000000 0.000000
												CHANNELS 3 Xrotation Yrotation Zrotation
												End Site
												{
													OFFSET 0 0 0
												}
											}
										}
									}
								}
							}
						}
					}
				}
			}
		}
	}
}
MOTION
Frames: 10
Frame Time: 0.03333333
0.826829 94.517418 -5.823719 0.000000 0.000000 0.000000 37.053250 -12.138774 1.392900 -78.914742 1.615487 26.798899 84.103965 -7.506839 -5.371794 14.098894 -17.830028 -6.205475 7.335615 -0.777341 0.984409 0.000000 0.000000 0.000000 32.169044 -17.689541 4.083348 -35.431169 -2.779471 1.884090 28.467414 2.922878 -3.430222 -3.199207 -8.198569 -9.381391 -24.496600 2.922525 -0.310096 0.000000 0.000000 0.000000 38.832405 -7.722538 1.683624 16.706395 1.197303 -8.254315 -5.878320 1.660297 1.172180 1.527225 0.283606 -0.160082 0.000000 0.000000 0.000000 -9.125654 -1.371457 3.685458 -0.773409 6.962568 -1.608692 -22.445424 11.051080 -6.872552 0.000000 0.000000 0.000000 -8.890066 -0.697190 2.783079 2.541511 -5.247038 11.020046 -1.362791 -8.115738 -4.975222 -66.702316 -3.293279 -24.202577 174.601587 -78.091998 175.300425 0.000000 0.000000 0.000000 -8.523601 -1.310741 4.283602 5.310234 15.202058 0.744669 -3.946690 2.042066 3.118380 -14.773976 1.551255 47.754586 -0.628202 68.585017 -3.366673 0.000000 0.000000 0.000000 
-0.940599 93.891251 7.480202 0.000000 0.000000 0.000000 33.264476 -13.240624 0.908987 -82.149772 3.507333 27.801238 71.417804 -3.859936 -6.956044 13.206183 -16.544672 -5.948392 6.977630 -0.743693 1.237666 0.000000 0.000000 0.000000 30.609636 -21.799305 5.030506 -28.789005 -1.417515 -0.694666 27.022549 2.822777 -3.498377 0.793818 -6.678875 -2.651678 -29.794658 2.530344 -0.206091 0.000000 0.000000 0.000000 37.651578 -8.206677 1.388334 17.191006 2.866166 -8.458036 -6.009840 2.111175 1.336783 0.188846 1.983034 -0.674234 0.000000 0.000000 0.000000 -8.445969 -0.941082 3.833658 -1.079626 6.788975 -1.515483 -22.094489 10.575599 -6.452899 0.000000 0.000000 0.000000 -8.442521 -0.155381 3.223289 2.190452 -3.708668 9.840213 1.154294 -6.934671 -4.446968 -63.652541 -0.797789 -24.363778 164.553655 -78.403987 165.062996 0.000000 0.000000 0.000000 -8.719524 -0.749837 4.106360 5.216452 17.266921 0.228953 -4.508838 1.897792 0.627921 -18.779180 8.481229 46.523782 4.218329 74.877356 -8.574741 0.000000 0.000000 0.000000 
-2.864166 92.870064 23.087208 0.000000 0.000000 0.000000 29.795864 -14.601334 1.484026 -82.521936 4.796094 26.131885 58.111775 0.959552 -6.379439 13.426050 -13.526388 -5.200115 6.072528 -0.889950 1.300551 0.000000 0.000000 0.000000 29.249991 -21.892337 5.103553 -15.308547 1.144757 -3.757593 24.105623 1.498831 -4.613042 2.793587 -4.915750 2.941197 -26.748146 2.027866 0.452305 0.000000 0.000000 0.000000 34.480096 -8.203304 1.004807 18.749865 5.673633 -9.588943 -5.600055 2.827286 1.606245 -0.360335 1.596300 0.605799 0.000000 0.000000 0.000000 -7.126207 -0.011370 4.107977 -2.561251 5.765408 -1.008038 -21.750200 8.737523 -6.552708 0.000000 0.000000 0.000000 -7.578301 0.854343 3.671820 1.723582 -1.671690 6.838213 2.929005 -5.337091 -2.613668 -58.346256 3.562193 -24.855374 144.222190 -75.696910 144.708568 0.000000 0.000000 0.000000 -8.131249 0.282747 3.811596 5.104302 19.934628 0.442015 -3.934472 0.739800 -1.555383 -22.669464 15.328766 43.665160 16.998707 78.446854 -21.855014 0.000000 0.000000 0.000000 
-4.238433 91.148094 37.656509 0.000000 0.000000 0.000000 26.720776 -14.160212 2.603996 -79.785782 5.741005 21.831537 47.693558 5.058847 -3.610973 12.933312 -9.571235 -3.945627 6.243031 -1.192420 1.422510 0.000000 0.000000 0.000000 28.738229 -18.298919 4.686284 -0.453079 3.020847 -6.839422 21.977484 -0.577643 -6.654866 2.454001 -3.974737 5.990046 -17.678524 1.836589 1.127679 0.000000 0.000000 0.000000 29.684818 -7.038019 0.743069 21.457623 8.710796 -11.366301 -4.784606 3.441066 1.895169 1.448732 -1.024420 3.269221 0.000000 0.000000 0.000000 -5.626677 0.954586 4.433490 -5.091686 4.325879 -0.161602 -21.483856 6.349924 -7.108643 0.000000 0.000000 0.000000 -6.651722 1.793993 3.886934 1.423524 0.230528 2.455350 4.979644 -3.761895 -0.793426 -50.833806 8.921252 -26.884343 131.998515 -69.060002 132.475153 0.000000 0.000000 0.000000 -6.925967 1.234733 3.436630 4.746663 22.406511 2.200260 -3.158084 -0.730091 -3.274950 -24.159028 18.761369 39.626804 30.967709 78.622185 -36.438964 0.000000 0.000000 0.000000 
-4.999539 89.100830 50.764351 0.000000 0.000000 0.000000 23.571256 -11.447505 3.833586 -74.694771 6.323715 15.578511 40.584813 7.055886 0.379416 11.038590 -6.441176 -2.901470 6.474872 -1.439631 1.767111 0.000000 0.000000 0.000000 28.420141 -12.556262 4.173986 8.946386 3.474019 -9.582037 26.110884 -2.036568 -8.192648 2.099893 -3.143467 7.600205 -8.087870 2.098798 1.486148 0.000000 0.000000 0.000000 24.566573 -4.410412 1.180321 25.084088 10.972880 -13.195009 -3.724190 3.616768 1.971787 2.923116 -3.396884 4.822365 0.000000 0.000000 0.000000 -4.327345 1.319049 4.672439 -8.412735 2.667177 0.872780 -21.101625 3.871405 -7.899457 0.000000 0.000000 0.000000 -5.881541 2.093167 3.683020 1.336974 1.081277 -2.661227 7.882962 -1.887020 0.657137 -40.932265 13.928099 -31.227621 129.074483 -60.899415 129.466427 0.000000 0.000000 0.000000 -5.493045 1.527519 2.993372 4.042716 23.691809 5.731548 -3.586685 -1.787607 -4.219419 -22.186128 16.996518 35.605940 38.894003 77.584583 -44.996415 0.000000 0.000000 0.000000 
-4.971845 87.218651 62.141083 0.000000 0.000000 0.000000 20.666423 -8.038023 5.232873 -67.183318 6.453515 8.370171 36.153486 6.431727 4.021798 8.049162 -5.046479 -2.085903 3.420227 -1.719403 2.398828 0.000000 0.000000 0.000000 27.374305 -5.405506 3.783230 8.684559 3.103398 -11.973673 39.538059 -2.416929 -8.620538 3.755858 -1.598137 9.477339 -2.619251 2.506497 1.388844 0.000000 0.000000 0.000000 19.539889 -1.660859 3.011428 29.263153 11.816827 -14.470017 -2.597571 3.002998 1.720990 2.985006 -4.950679 4.004871 0.000000 0.000000 0.000000 -3.529591 0.737414 4.666855 -12.006912 1.013267 1.907734 -19.800795 2.398215 -8.271526 0.000000 0.000000 0.000000 -5.283034 1.441078 3.022658 1.261683 0.546003 -7.558903 11.025680 0.253722 1.460381 -30.639518 16.426388 -37.484693 131.219818 -53.488799 131.323419 0.000000 0.000000 0.000000 -4.333938 0.831296 2.539549 3.172244 22.850526 10.274816 -4.893129 -2.648443 -4.073619 -16.612415 10.233026 33.210046 42.433756 77.438690 -48.950774 0.000000 0.000000 0.000000 
-4.454700 85.703918 72.743477 0.000000 0.000000 0.000000 17.886085 -4.387778 6.361475 -58.113169 6.005087 1.586048 33.848584 4.452064 6.314774 4.836554 -4.703998 -3.066897 -2.240093 -1.796446 2.913785 0.000000 0.000000 0.000000 24.956108 1.460866 3.875118 -0.773596 2.377796 -13.763874 59.824124 -2.156150 -7.567774 6.585360 0.844223 11.756081 -1.075303 2.470759 0.993626 0.000000 0.000000 0.000000 15.062778 0.319107 4.975123 33.236018 11.275240 -14.290081 -1.771453 1.490424 1.345260 2.687837 -4.969163 1.746566 0.000000 0.000000 0.000000 -3.124529 -0.807047 4.301984 -15.661993 -0.507053 2.767732 -17.123832 1.669530 -7.830486 0.000000 0.000000 0.000000 -4.702036 -0.114724 2.209397 1.069071 -1.134399 -11.339040 12.384991 2.426899 0.604945 -21.902822 15.805698 -43.661704 136.087722 -47.994626 135.729547 0.000000 0.000000 0.000000 -3.596888 -0.888250 2.045849 2.159187 19.700610 14.848857 -6.428548 -2.883644 -3.631035 -8.318248 0.738269 33.869047 43.949265 78.816285 -50.743057 0.000000 0.000000 0.000000 
-3.808618 85.032150 83.577332 0.000000 0.000000 0.000000 15.117283 -1.161249 6.775266 -45.982391 5.746413 -3.446160 31.584270 4.120812 6.907351 0.370415 -3.600040 -2.897339 -6.738779 -1.595306 2.092310 0.000000 0.000000 0.000000 20.575702 6.525062 4.318703 -17.571365 1.931452 -14.212947 79.659465 -2.351381 -5.637290 8.813005 2.848467 11.625067 -1.017525 1.921049 0.739787 0.000000 0.000000 0.000000 12.416150 0.840739 6.305613 35.975692 9.699024 -12.103068 -1.510012 -0.780273 0.869508 1.586653 -4.052633 0.058417 0.000000 0.000000 0.000000 -3.017908 -3.090149 3.555236 -18.746709 -1.837928 3.247618 -12.960007 0.878336 -6.380112 0.000000 0.000000 0.000000 -4.100570 -2.316209 1.477071 0.700434 -3.261872 -13.515234 12.367347 4.182613 -0.820782 -16.731371 12.873014 -47.596306 142.393666 -45.001770 141.442166 0.000000 0.000000 0.000000 -3.028527 -3.217086 1.535937 1.350968 14.348361 18.035415 -7.515341 -1.626168 -3.238300 2.350677 -7.696810 36.920837 41.616404 81.497954 -48.553158 0.000000 0.000000 0.000000 
-3.359605 84.676224 95.557343 0.000000 0.000000 0.000000 13.075810 1.690482 6.519919 -29.852564 5.783131 -6.129370 27.331830 7.325116 6.170698 -7.976645 -1.031511 1.714503 -8.534585 -1.676144 0.123353 0.000000 0.000000 0.000000 15.016130 9.162261 4.911242 -37.240367 1.680408 -12.926405 90.897155 -4.163130 -2.876070 10.838877 3.336940 9.042131 -2.075511 0.962575 0.625989 0.000000 0.000000 0.000000 11.030598 -0.327211 6.630535 36.917002 7.437222 -8.145001 -1.765650 -3.437150 0.388063 0.976692 -3.021538 0.162252 0.000000 0.000000 0.000000 -3.026975 -5.612043 2.634763 -20.717453 -2.817334 3.317688 -7.443830 0.033888 -4.288396 0.000000 0.000000 0.000000 -3.505705 -4.777387 0.948189 0.330045 -5.238255 -13.788172 11.191959 6.518819 -2.047531 -15.635826 9.303606 -48.089012 149.483130 -44.339433 147.729028 0.000000 0.000000 0.000000 -2.433156 -5.645746 1.148048 0.902741 7.608495 18.843401 -6.787208 1.283460 -2.723219 13.880680 -13.486102 40.411494 19.239388 83.454461 -26.271419 0.000000 0.000000 0.000000 
-3.325920 84.248177 108.936157 0.000000 0.000000 0.000000 11.762988 3.508957 5.725219 -11.958149 5.473044 -5.506803 20.956573 11.343242 5.475899 -16.243004 0.948241 4.979052 -11.066424 -2.383530 -0.696985 0.000000 0.000000 0.000000 8.990163 7.969553 5.335843 -53.925826 1.144040 -10.062868 90.864732 -7.046487 0.139163 15.296137 3.174404 6.047207 -3.428062 -0.088310 0.468844 0.000000 0.000000 0.000000 10.466255 -2.360935 5.849076 36.007924 4.720184 -3.454528 -2.439936 -5.967698 0.029122 1.196330 -0.900912 0.546389 0.000000 0.000000 0.000000 -2.941297 -7.987504 1.790864 -21.356639 -3.256721 3.118272 -1.403271 -0.322489 -2.391072 0.000000 0.000000 0.000000 -3.040852 -7.175429 0.679210 0.137849 -6.620725 -12.555314 8.577132 8.374100 -2.645195 -18.009863 7.740080 -44.912271 156.601375 -46.133779 153.965250 0.000000 0.000000 0.000000 -1.823223 -7.904789 0.968214 0.658651 0.565319 17.478058 -4.984670 4.373584 -2.755238 23.763500 -17.448067 42.041942 -17.837826 82.101435 10.677905 0.000000 0.000000 0.000000 
